<?xml version="1.0" encoding="UTF-8" standalone="no"?>
<!DOCTYPE svg PUBLIC "-//W3C//DTD SVG 1.1//EN" "http://www.w3.org/Graphics/SVG/1.1/DTD/svg11.dtd">
<svg width="100%" height="100%" viewBox="0 0 36 36" version="1.1" xmlns="http://www.w3.org/2000/svg" xmlns:xlink="http://www.w3.org/1999/xlink" xml:space="preserve" xmlns:serif="http://www.serif.com/" style="fill-rule:evenodd;clip-rule:evenodd;stroke-linejoin:round;stroke-miterlimit:2;">
    <path d="M34.453,15.573C33.589,8.273 28.724,5.126 20.523,5.126C20.132,5.126 19.76,5.143 19.384,5.157C19.372,5.148 19.363,5.138 19.352,5.128C19.461,5.26 23.964,10.714 21,16.641C17.395,23.852 10.414,22.641 9,22.641C8,22.641 7,20.641 9,20.641C12.162,20.641 17,20.641 20,15.641C22.97,10.692 19.423,5.237 19.351,5.128L19.349,5.126C14.655,1.605 4.091,2.779 1.745,6.3C-1.51,11.183 0.571,28.6 1.745,30.946C2.918,33.296 6.439,34.467 7.613,33.296C8.787,32.12 7.613,32.12 6.44,29.775C5.59,28.074 5.974,23.916 6.695,21.304C6.723,21.472 6.763,21.626 6.795,21.79C7.185,24.661 8.788,29.202 8.788,31.534C8.788,35.098 10.89,35.641 13.482,35.641C16.075,35.641 18.177,35.098 18.177,31.534C18.177,31.294 18.169,31.071 18.165,30.839C18.922,30.903 19.7,30.946 20.524,30.946C21.021,30.946 21.501,30.93 21.972,30.907C21.968,31.116 21.959,31.317 21.959,31.534C21.959,35.098 24.062,35.641 26.653,35.641C29.246,35.641 31.348,35.098 31.348,31.534C31.348,29.733 32.54,26.909 33.387,24.552C33.546,24.198 33.678,23.82 33.807,23.435C33.925,24.742 34,26.141 34,27.641C34,28.194 34.447,28.641 35,28.641C35.553,28.641 36,28.194 36,27.641C36,22.488 35.229,18.393 34.453,15.573ZM6.5,12.641C7.328,12.641 8,13.313 8,14.141C8,14.969 7.328,15.641 6.5,15.641C5.672,15.641 5,14.969 5,14.141C5,13.313 5.672,12.641 6.5,12.641Z" style="fill:rgb(153,170,181);fill-rule:nonzero;"/>
</svg>
